<?xml version="1.0" standalone="no"?>
<!DOCTYPE svg PUBLIC "-//W3C//DTD SVG 20010904//EN"
 "http://www.w3.org/TR/2001/REC-SVG-20010904/DTD/svg10.dtd">
<svg version="1.0" xmlns="http://www.w3.org/2000/svg"
 width="456.000000pt" height="456.000000pt" viewBox="0 0 456.000000 456.000000"
 preserveAspectRatio="xMidYMid meet">

<g transform="translate(0.000000,456.000000) scale(0.100000,-0.100000)"
fill="#000000" stroke="none">
<path d="M2132 3928 c-32 -29 -193 -179 -357 -333 -164 -154 -384 -360 -489
-458 -193 -180 -215 -208 -181 -237 27 -22 55 -3 202 136 76 72 289 271 473
444 184 172 354 331 377 353 l41 39 364 -332 c413 -379 546 -501 635 -582 66
-61 73 -64 104 -48 40 22 23 52 -96 159 l-115 103 -2 162 -3 161 -115 0 -115
0 -5 -48 -5 -49 -135 124 c-75 67 -219 198 -319 291 -101 92 -187 167 -192
167 -5 0 -35 -24 -67 -52z"/>
<path d="M2043 3643 c-88 -81 -287 -265 -442 -408 l-281 -260 0 -42 c0 -41 2
-44 75 -98 87 -64 174 -111 225 -120 19 -3 88 -2 152 4 116 10 133 8 234 -24
18 -6 39 15 139 137 65 79 125 150 132 159 12 14 12 24 -3 68 -38 118 30 233
147 248 l43 6 -34 -42 c-75 -93 -72 -76 -36 -166 l31 -80 70 -12 c101 -17 99
-18 146 42 24 30 47 54 52 55 15 1 6 -86 -14 -127 -32 -65 -93 -98 -185 -98
l-71 0 -128 -154 c-146 -175 -150 -187 -97 -260 40 -55 43 -101 7 -136 -13
-14 -31 -25 -40 -25 -11 0 -15 -11 -15 -42 0 -24 -4 -48 -8 -54 -14 -20 -57
-44 -79 -44 -19 0 -23 -5 -23 -33 0 -43 -30 -75 -78 -83 -28 -4 -42 -14 -54
-35 -22 -37 -69 -39 -137 -5 l-48 25 -42 -51 c-39 -48 -41 -54 -35 -98 11 -84
-33 -167 -106 -198 l-35 -15 45 -21 c40 -18 67 -21 268 -24 l222 -3 0 -29 c0
-48 38 -135 80 -183 67 -75 115 -90 314 -95 148 -4 171 -7 187 -23 11 -11 33
-19 49 -19 l30 0 0 -215 0 -215 -29 -32 -29 -33 -351 -3 -350 -3 -33 30 c-33
29 -33 30 -39 144 -4 97 -9 122 -32 169 -32 65 -90 121 -156 151 -41 19 -71
22 -253 27 -270 7 -252 -8 -256 210 -3 156 -3 160 17 160 20 0 21 6 21 86 0
77 -2 86 -20 91 -18 5 -20 14 -20 85 0 117 34 168 112 168 l38 0 0 -50 c0 -27
1 -50 3 -50 1 0 24 11 51 25 27 14 66 25 87 25 31 0 43 6 68 37 l30 36 -22 27
c-12 14 -40 57 -62 95 -22 38 -65 94 -95 124 l-55 56 -3 -57 -3 -57 -57 -6
c-120 -14 -209 -72 -260 -169 -23 -45 -27 -65 -30 -168 -4 -108 -6 -118 -23
-118 -17 0 -19 -8 -19 -90 0 -89 0 -90 24 -90 l24 0 4 -177 c3 -200 12 -234
83 -311 69 -77 102 -86 332 -92 l202 -5 29 -28 c28 -27 29 -33 34 -135 7 -136
29 -193 104 -261 89 -82 93 -82 535 -79 l384 3 51 27 c28 15 70 48 92 73 66
75 72 106 72 367 l0 228 25 0 c14 0 33 8 43 18 16 16 43 20 199 26 121 4 195
11 226 22 61 21 132 84 165 148 24 46 27 63 30 183 4 118 6 133 22 138 38 12
33 75 -6 75 -10 0 -13 38 -16 173 -3 157 -5 176 -27 220 -53 109 -149 167
-292 175 -80 4 -88 7 -91 26 -4 31 -62 30 -66 -1 -2 -13 -10 -23 -18 -23 -11
0 -14 -21 -14 -105 0 -83 3 -105 14 -105 7 0 16 -9 19 -20 7 -28 57 -28 64 0
5 17 14 20 70 20 72 0 114 -18 132 -57 6 -14 11 -84 11 -163 0 -133 -1 -140
-20 -140 -23 0 -43 -32 -34 -54 3 -9 17 -19 31 -22 25 -7 25 -7 21 -115 -3
-103 -4 -110 -31 -136 l-27 -28 -166 -3 c-157 -3 -167 -2 -186 17 -17 20 -30
21 -183 21 -154 0 -165 -1 -178 -21 -14 -19 -22 -20 -177 -17 l-162 3 -24 28
c-13 15 -24 37 -24 47 0 18 13 19 288 22 l287 3 66 32 c79 39 140 102 177 181
25 54 27 67 30 230 l3 172 -196 0 c-176 0 -200 -2 -235 -20 -48 -25 -87 -74
-98 -126 l-8 -39 -103 -3 -104 -3 6 53 c9 76 67 188 125 239 49 44 126 85 177
95 18 3 35 14 40 27 6 13 21 23 38 25 25 3 27 7 27 46 l0 43 -47 -12 c-87 -23
-220 10 -180 44 27 22 122 31 176 17 46 -12 50 -11 54 6 7 25 57 25 57 -1 0
-17 3 -17 52 -5 72 19 188 0 188 -31 0 -32 -151 -51 -212 -26 l-28 11 0 -45
c0 -33 4 -45 15 -46 8 -1 20 -2 26 -3 6 0 16 -9 23 -18 11 -15 29 -18 110 -18
l96 0 0 259 0 259 -262 244 c-223 206 -461 427 -584 541 l-31 28 -160 -148z
m477 -1733 c12 -18 25 -51 28 -75 4 -37 1 -47 -21 -69 -36 -36 -89 -36 -122 0
-34 37 -31 65 17 161 l42 84 17 -34 c9 -20 27 -50 39 -67z"/>
<path d="M1370 1963 l-39 -44 15 -41 c31 -88 81 -146 135 -154 31 -5 38 -2 75
43 59 70 58 67 29 143 -29 75 -24 72 -123 88 l-53 9 -39 -44z"/>
</g>
</svg>
