<?xml version="1.0" standalone="no"?>
<!DOCTYPE svg PUBLIC "-//W3C//DTD SVG 20010904//EN"
 "http://www.w3.org/TR/2001/REC-SVG-20010904/DTD/svg10.dtd">
<svg version="1.0" xmlns="http://www.w3.org/2000/svg"
 width="825.000000pt" height="824.000000pt" viewBox="0 0 825.000000 824.000000"
 preserveAspectRatio="xMidYMid meet">

<g transform="translate(0.000000,824.000000) scale(0.100000,-0.100000)"
fill="#000000" stroke="none">
<path d="M3734 6197 c-215 -177 -515 -423 -665 -547 -151 -123 -359 -295 -464
-381 -104 -87 -350 -289 -547 -451 -196 -161 -358 -296 -360 -299 -1 -4 57
-79 130 -168 92 -111 137 -159 145 -153 17 13 454 371 582 477 61 50 263 217
450 370 187 153 428 351 535 440 107 88 284 234 392 323 l197 163 253 -208
c264 -216 428 -351 563 -463 44 -37 208 -172 365 -300 157 -129 332 -273 390
-321 58 -48 188 -155 290 -238 102 -84 205 -169 229 -189 85 -71 66 -79 197
80 64 79 125 152 135 164 21 22 96 -43 -776 674 -255 210 -629 517 -845 694
-113 93 -225 185 -250 206 -185 155 -546 450 -550 450 -3 0 -181 -145 -396
-323z"/>
<path d="M3970 5428 c-85 -71 -222 -185 -305 -253 -82 -68 -234 -192 -336
-277 -102 -84 -317 -261 -477 -393 l-292 -240 0 -822 0 -823 1570 0 1570 0 0
819 0 819 -462 383 c-255 211 -569 471 -698 578 -129 107 -274 227 -322 268
-47 40 -88 73 -90 72 -1 0 -73 -59 -158 -131z m135 -1293 l0 -270 -292 -3
-293 -2 0 268 c0 148 3 272 7 275 4 4 135 6 292 5 l286 -3 0 -270z m660 0 l0
-270 -292 -3 -293 -2 0 275 0 275 293 -2 292 -3 0 -270z m-660 -620 l0 -270
-290 0 -290 0 -3 273 -2 272 292 -2 293 -3 0 -270z m660 0 l0 -270 -290 0
-290 0 -3 273 -2 272 292 -2 293 -3 0 -270z"/>
<path d="M1487 2948 c-45 -61 -267 -366 -493 -677 l-411 -566 1773 -3 c976 -1
2572 -1 3548 0 l1774 3 -365 500 c-200 275 -378 520 -396 545 -17 25 -75 105
-129 178 l-98 132 -348 -2 -347 -3 -3 -337 -2 -338 -1855 0 -1855 0 -2 338 -3
337 -353 3 -352 2 -83 -112z"/>
</g>
</svg>
