<?xml version="1.0" standalone="no"?>
<!DOCTYPE svg PUBLIC "-//W3C//DTD SVG 20010904//EN"
 "http://www.w3.org/TR/2001/REC-SVG-20010904/DTD/svg10.dtd">
<svg version="1.0" xmlns="http://www.w3.org/2000/svg"
 width="825.000000pt" height="824.000000pt" viewBox="0 0 825.000000 824.000000"
 preserveAspectRatio="xMidYMid meet">

<g transform="translate(0.000000,824.000000) scale(0.100000,-0.100000)"
fill="#000000" stroke="none">
<path d="M2983 6271 c-18 -11 -40 -32 -50 -48 -17 -26 -18 -79 -21 -934 l-2
-907 -159 -4 c-143 -3 -163 -5 -188 -24 -60 -44 -63 -60 -63 -379 0 -319 3
-335 63 -379 25 -19 45 -21 188 -24 l159 -3 0 -145 0 -144 -155 0 c-171 0
-197 -6 -231 -57 -17 -26 -19 -53 -22 -326 -3 -286 -2 -300 18 -342 32 -66 59
-75 238 -75 l151 0 3 -229 c4 -336 -14 -321 403 -321 319 0 335 3 379 63 20
26 21 44 24 258 l3 229 428 0 428 0 34 23 c58 39 59 43 59 386 l0 313 -39 39
-39 39 -436 0 -436 0 0 145 0 145 354 0 c393 0 511 8 666 46 377 93 706 357
882 709 159 315 184 720 66 1053 -158 449 -537 780 -1010 884 -101 22 -117 22
-883 25 -762 3 -781 3 -812 -16z m1587 -809 c240 -80 390 -285 390 -534 0
-212 -117 -400 -309 -494 -36 -17 -84 -37 -106 -43 -26 -7 -180 -11 -432 -11
l-393 0 0 556 0 555 393 -3 c370 -4 396 -5 457 -26z"/>
</g>
</svg>
