<?xml version="1.0" standalone="no"?>
<!DOCTYPE svg PUBLIC "-//W3C//DTD SVG 20010904//EN"
 "http://www.w3.org/TR/2001/REC-SVG-20010904/DTD/svg10.dtd">
<svg version="1.0" xmlns="http://www.w3.org/2000/svg"
 width="456.000000pt" height="456.000000pt" viewBox="0 0 456.000000 456.000000"
 preserveAspectRatio="xMidYMid meet">

<g transform="translate(0.000000,456.000000) scale(0.100000,-0.100000)"
fill="#000000" stroke="none">
<path d="M2018 3468 l-3 -23 -572 -3 -573 -2 0 -60 0 -60 45 0 c41 0 45 -2 45
-25 0 -23 -4 -25 -45 -25 l-45 0 0 -60 0 -60 44 0 43 0 5 -117 c3 -65 3 -355
0 -645 l-5 -528 -41 0 -41 0 -54 -96 -54 -96 33 -62 c18 -33 44 -78 57 -98
l23 -38 108 0 107 0 57 98 c84 144 85 133 -13 130 -83 -3 -84 -3 -87 -30 -3
-26 -1 -28 32 -28 20 0 36 -2 36 -5 0 -3 -14 -27 -31 -55 l-31 -51 -75 3 -74
3 -37 66 -36 66 38 66 37 67 84 0 85 0 0 30 c0 28 -3 30 -35 30 l-35 0 0 645
0 645 355 0 355 0 6 -25 c3 -14 5 -334 2 -710 l-3 -685 172 0 173 0 0 90 0 89
-112 3 -113 3 -3 77 -3 78 40 42 40 43 1 -87 0 -88 174 0 174 0 7 79 c4 44 4
85 0 90 -3 6 -37 11 -76 11 l-69 0 0 495 0 495 45 0 45 0 0 -51 c0 -60 -9 -65
151 75 61 54 117 99 124 100 10 1 550 -456 872 -739 l102 -90 1 -142 0 -143
-165 0 -165 0 0 -90 0 -90 165 0 165 0 0 -155 0 -155 -170 0 -170 0 0 -90 0
-90 170 0 170 0 0 -100 0 -101 -87 3 -88 3 -3 68 -3 67 -174 0 -175 0 0 -70
c0 -68 -1 -70 -25 -70 -24 0 -25 2 -25 70 l0 70 -180 0 -180 0 0 -70 c0 -68
-1 -70 -25 -70 -24 0 -25 2 -25 69 l0 68 -91 8 c-50 3 -129 3 -175 0 l-84 -7
0 -69 c0 -67 -1 -69 -25 -69 -24 0 -25 2 -25 70 l0 70 -180 0 -180 0 0 -70 0
-70 -95 0 -95 0 -2 686 -3 685 -165 -141 c-91 -78 -166 -145 -168 -150 -2 -6
45 -67 89 -114 5 -5 31 10 63 37 30 26 57 47 60 47 3 0 6 -263 6 -585 l0 -585
1085 0 1085 0 0 585 c0 322 3 585 6 585 4 0 31 -20 60 -45 28 -25 55 -45 58
-45 9 0 66 66 88 99 l16 26 -130 110 c-72 61 -168 143 -214 183 l-84 73 0 254
0 255 -132 0 c-192 0 -178 9 -178 -121 0 -60 -3 -109 -6 -109 -10 0 -80 57
-254 208 -91 79 -190 165 -220 191 -90 78 -93 79 -130 47 -32 -26 -32 -27
-179 -24 -143 3 -146 3 -149 26 -3 20 -9 22 -57 22 -48 0 -54 -2 -57 -22z
m-80 -145 c78 -6 82 -7 82 -29 l0 -24 -505 0 -505 0 0 25 0 25 188 3 c425 6
662 7 740 0z m324 -28 c-23 -20 -41 -25 -81 -25 -48 0 -51 2 -51 25 0 25 1 25
81 25 l81 0 -30 -25z m-242 -195 l0 -51 -87 3 -88 3 -3 48 -3 47 90 0 91 0 0
-50z m1248 -112 c1 -83 -1 -138 -7 -138 -5 0 -23 12 -40 26 l-31 26 0 114 0
115 38 -3 37 -3 3 -137z m-1258 14 c0 -4 -38 -45 -85 -92 l-85 -85 0 93 0 92
85 0 c47 0 85 -3 85 -8z m8 -179 l-3 -118 -85 0 c-85 0 -85 0 -88 27 -3 21 13
44 80 117 46 50 86 91 91 91 4 0 6 -53 5 -117z m-8 -171 c0 -4 -38 -45 -85
-92 l-85 -85 0 93 0 92 85 0 c47 0 85 -3 85 -8z m10 -164 c0 -57 -4 -109 -9
-116 -5 -9 -30 -12 -87 -10 -73 3 -79 5 -82 26 -3 16 18 46 79 112 45 50 86
90 91 90 4 0 8 -46 8 -102z m-10 -168 c0 -6 -38 -50 -85 -98 l-84 -87 -1 66
c0 37 3 81 6 98 l7 31 78 0 c48 0 79 -4 79 -10z m10 -115 l0 -45 -47 0 -46 0
19 23 c69 83 74 84 74 22z"/>
<path d="M2330 2070 l0 -90 175 0 175 0 0 90 0 90 -175 0 -175 0 0 -90z"/>
<path d="M2737 2154 c-4 -4 -7 -45 -7 -91 l0 -83 180 0 181 0 -3 88 -3 87
-171 3 c-93 1 -173 -1 -177 -4z"/>
<path d="M2120 1820 l0 -90 180 0 181 0 -3 88 -3 87 -177 3 -178 2 0 -90z"/>
<path d="M2530 1820 l0 -90 175 0 175 0 0 90 0 90 -175 0 -175 0 0 -90z"/>
<path d="M2932 1823 l3 -88 178 -3 177 -2 0 90 0 90 -180 0 -181 0 3 -87z"/>
<path d="M1920 1580 l0 -90 175 0 175 0 0 90 0 90 -175 0 -175 0 0 -90z"/>
<path d="M2327 1663 c-4 -3 -7 -44 -7 -90 l0 -83 175 0 175 0 0 90 0 90 -168
0 c-93 0 -172 -3 -175 -7z"/>
<path d="M2730 1580 l0 -90 175 0 175 0 0 90 0 90 -175 0 -175 0 0 -90z"/>
</g>
</svg>
