<?xml version="1.0" encoding="UTF-8"?>
<!DOCTYPE svg PUBLIC "-//W3C//DTD SVG 1.1//EN" "http://www.w3.org/Graphics/SVG/1.1/DTD/svg11.dtd">
<svg xmlns="http://www.w3.org/2000/svg" version="1.1" width="768px" height="768px" style="shape-rendering:geometricPrecision; text-rendering:geometricPrecision; image-rendering:optimizeQuality; fill-rule:evenodd; clip-rule:evenodd" xmlns:xlink="http://www.w3.org/1999/xlink">
<g><path style="opacity:0.985" fill="#151515" d="M 383.5,69.5 C 394.571,69.9254 405.571,71.0921 416.5,73C 480.306,85.2037 543.972,97.8704 607.5,111C 608.687,112.019 609.687,113.186 610.5,114.5C 543.568,132.188 476.568,149.688 409.5,167C 403.515,167.943 397.515,168.776 391.5,169.5C 385.149,168.798 378.816,167.965 372.5,167C 306.627,150.261 240.96,132.928 175.5,115C 171.513,111.233 172.513,109.233 178.5,109C 247.059,96.2692 315.392,83.1025 383.5,69.5 Z"/></g>
<g><path style="opacity:0.941" fill="#151515" d="M 560.5,130.5 C 562.045,131.23 562.878,132.563 563,134.5C 563.333,155.833 563.667,177.167 564,198.5C 564.793,202.295 566.793,205.295 570,207.5C 570.785,213.619 569.451,219.286 566,224.5C 565.333,227.833 565.333,231.167 566,234.5C 569.846,249.365 573.68,264.198 577.5,279C 566.134,280.339 554.8,280.339 543.5,279C 541.993,277.527 541.326,275.693 541.5,273.5C 544.313,258.602 547.313,243.768 550.5,229C 550.303,225.013 549.469,221.179 548,217.5C 547.333,214.833 547.333,212.167 548,209.5C 550.034,205.48 552.034,201.48 554,197.5C 554.333,177.167 554.667,156.833 555,136.5C 555.727,133.309 557.561,131.309 560.5,130.5 Z"/></g>
<g><path style="opacity:0.986" fill="#151515" d="M 276.5,147.5 C 307.485,156.495 338.485,165.329 369.5,174C 381.342,177.676 393.342,178.343 405.5,176C 437.836,165.966 470.503,157.132 503.5,149.5C 503.833,152 504.167,154.5 504.5,157C 503.859,168.16 503.359,179.326 503,190.5C 501.861,205.945 494.361,217.111 480.5,224C 432.384,251.193 382.051,255.859 329.5,238C 316.245,233.027 303.912,226.36 292.5,218C 286.25,212.906 282.417,206.406 281,198.5C 279.341,181.697 277.841,164.697 276.5,147.5 Z"/></g>
<g><path style="opacity:0.988" fill="#151515" d="M 494.5,220.5 C 506.054,260.887 498.221,297.221 471,329.5C 438.833,360.335 401,370.168 357.5,359C 326.333,347.499 303.833,326.665 290,296.5C 287.286,287.587 284.453,278.753 281.5,270C 281.569,258.674 281.569,247.341 281.5,236C 282.915,232.27 284.082,228.437 285,224.5C 285.739,223.426 286.739,222.759 288,222.5C 336.802,255.989 389.636,264.156 446.5,247C 464.132,240.809 480.132,231.976 494.5,220.5 Z"/></g>
<g><path style="opacity:0.975" fill="#151515" d="M 379.5,369.5 C 389.315,368.927 398.982,369.76 408.5,372C 416.815,378.201 418.648,386.034 414,395.5C 410.482,398.923 406.482,401.59 402,403.5C 400.92,412.326 401.587,420.993 404,429.5C 408.519,438.714 412.853,448.047 417,457.5C 418.132,465.445 417.132,473.111 414,480.5C 408.683,491.803 403.35,503.136 398,514.5C 395.457,519.121 391.79,520.787 387,519.5C 379.41,503.985 372.076,488.318 365,472.5C 363.144,465.292 363.81,458.292 367,451.5C 371.106,444.392 374.772,437.059 378,429.5C 381.176,421.558 382.01,413.391 380.5,405C 376.796,402.057 372.963,399.224 369,396.5C 362.142,383.584 365.642,374.584 379.5,369.5 Z"/></g>
<g><path style="opacity:0.989" fill="#151515" d="M 477.5,394.5 C 492.869,396.02 506.869,401.187 519.5,410C 555.542,434.708 579.042,468.208 590,510.5C 591.287,518.05 592.454,525.717 593.5,533.5C 593.253,537.579 591.253,540.412 587.5,542C 471.886,552.944 356.053,554.11 240,545.5C 238.106,545.58 236.273,545.913 234.5,546.5C 221.258,544.451 207.925,542.951 194.5,542C 190.546,539.505 188.879,535.839 189.5,531C 196.638,473.005 225.638,430.005 276.5,402C 287.315,396.566 298.648,394.899 310.5,397C 314.266,398.769 317.433,401.269 320,404.5C 340.518,443.709 360.852,483.042 381,522.5C 383.817,527.322 387.817,530.655 393,532.5C 393.873,532.265 394.707,531.931 395.5,531.5C 417.813,490.212 439.647,448.545 461,406.5C 463.285,404.093 465.451,401.593 467.5,399C 470.893,397.38 474.226,395.88 477.5,394.5 Z"/></g>
<g><path style="opacity:0.977" fill="#151515" d="M 154.5,549.5 C 216.572,552.514 278.572,556.681 340.5,562C 343.278,563.112 345.445,564.945 347,567.5C 356.535,588.408 360.535,610.408 359,633.5C 358.066,639.212 354.9,643.045 349.5,645C 292.766,650.203 236.433,655.537 180.5,661C 155.03,664.014 141.696,652.848 140.5,627.5C 141.4,617.436 142.733,607.436 144.5,597.5C 147.579,597.26 150.579,597.593 153.5,598.5C 154.563,606.939 157.23,614.772 161.5,622C 162.833,623 164.167,624 165.5,625C 176.066,627.128 182.9,622.961 186,612.5C 189.933,597.556 186.099,585.056 174.5,575C 159.365,567.707 147.198,571.207 138,585.5C 128.02,604.343 126.02,624.01 132,644.5C 138.687,661.033 150.853,670.033 168.5,671.5C 229.139,665.475 290.139,660.142 351.5,655.5C 351.445,670.061 344.111,678.228 329.5,680C 297.131,679.98 264.797,680.98 232.5,683C 213.144,685.649 193.644,688.149 174,690.5C 136.485,690.329 116.152,671.329 113,633.5C 110.058,610.925 113.725,589.592 124,569.5C 131.319,558.428 141.485,551.761 154.5,549.5 Z"/></g>
<g><path style="opacity:0.989" fill="#151515" d="M 609.5,549.5 C 635.819,545.626 653.653,555.96 663,580.5C 671.464,607.343 671.464,634.01 663,660.5C 660.05,664.64 656.05,666.307 651,665.5C 586.393,659.542 521.893,653.376 457.5,647C 453.406,645.65 451.739,642.817 452.5,638.5C 454.253,612.365 451.587,586.698 444.5,561.5C 499.839,557.791 554.839,553.791 609.5,549.5 Z"/></g>
<g><path style="opacity:0.98" fill="#151515" d="M 353.5,560.5 C 378.294,560.359 403.294,560.525 428.5,561C 430.888,561.303 433.055,562.137 435,563.5C 443.314,581.488 447.147,600.488 446.5,620.5C 446.566,637.534 444.066,654.201 439,670.5C 437.954,672.09 436.787,673.59 435.5,675C 408.562,676.64 381.562,676.974 354.5,676C 364.741,651.105 367.908,625.272 364,598.5C 361.612,585.505 358.112,572.838 353.5,560.5 Z"/></g>
<g><path style="opacity:0.951" fill="#151515" d="M 459.5,657.5 C 523.826,662.38 587.826,668.546 651.5,676C 652.747,677.494 652.747,678.994 651.5,680.5C 639.479,686.866 626.645,689.533 613,688.5C 603.118,688.531 593.285,687.864 583.5,686.5C 581.9,686.551 580.4,686.884 579,687.5C 576.404,685.98 573.571,685.147 570.5,685C 530.917,681.453 491.25,679.453 451.5,679C 443.398,674.728 442.398,669.061 448.5,662C 451.979,659.791 455.646,658.291 459.5,657.5 Z"/></g>
<g><path style="opacity:0.951" fill="#151515" d="M 366.5,681.5 C 385.333,682.827 404.167,682.827 423,681.5C 428.699,682.35 433.366,685.017 437,689.5C 441.07,696.473 443.57,703.973 444.5,712C 444.167,713.833 443.833,715.667 443.5,717.5C 430.666,710.999 417.833,704.666 405,698.5C 402.424,699.457 400.424,701.124 399,703.5C 394.739,711.694 390.239,719.694 385.5,727.5C 381.147,717.956 376.313,708.623 371,699.5C 365.47,693.468 358.97,688.801 351.5,685.5C 356.619,684.151 361.619,682.817 366.5,681.5 Z"/></g>
</svg>
